<svg xmlns="http://www.w3.org/2000/svg" xmlns:xlink="http://www.w3.org/1999/xlink" version="1.1" id="Layer_1" x="0px" y="0px" style="enable-background:new 0 0 1019 331.4;" xml:space="preserve" viewBox="133.17 78.47 740.23 174.47">
	<style type="text/css">
	.st0{fill:#F5C09A;}
	.st1{fill:none;stroke:#F5C09A;stroke-width:3.8665;stroke-linecap:round;stroke-linejoin:round;stroke-miterlimit:10;}
	.st2{fill:#FFFFFF;}
	</style>
	<g>
		<path class="st0" d="M388.8,165.1c-0.9-2-1.9-4.5-3.2-7.4c-1.2-2.9-2.6-6.1-4.1-9.6c-1.5-3.5-3-7-4.5-10.6   c-1.5-3.6-3.1-7.1-4.5-10.6c-1.5-3.5-2.8-6.7-4-9.6l-3.1-7.4c-0.9-2.1-1.5-3.5-1.8-4.3l-1-2.4l-28.8,67.7h11.5l7.2-17.5h20   c0.7,1.7,1.4,3.4,2,5c0.8,1.8,1.5,3.5,2.1,5c0.6,1.5,1.2,2.9,1.7,4.1c0.5,1.2,0.9,2.1,1.2,2.7l0.3,0.6h11.5l-0.7-1.5   C390.3,168.6,389.7,167.2,388.8,165.1z M368.5,143.5h-11.9l6-14.5c0.2,0.6,0.5,1.3,0.9,2.2c0.4,1.1,1,2.3,1.6,3.7l1.9,4.7   C367.4,140.9,367.9,142.2,368.5,143.5z"/>
		<polygon class="st0" points="423.5,107.8 412.1,107.8 412.1,170.9 453.8,170.9 453.8,160 423.5,160  "/>
		<path class="st0" d="M517,155l-1.1,1.5c0,0-0.2,0.2-1.2,0.7c-0.8,0.4-1.9,0.9-3.1,1.3c-1.3,0.4-2.7,0.8-4.3,1.1   c-1.5,0.3-3.2,0.5-4.8,0.5c-3.1,0-5.9-0.6-8.5-1.8c-2.6-1.2-4.8-2.8-6.6-4.7c-1.8-2-3.3-4.2-4.3-6.7c-1-2.5-1.6-5.1-1.6-7.8   c0-2.8,0.6-5.4,1.6-8c1.1-2.5,2.6-4.8,4.5-6.8c1.9-1.9,4.2-3.5,6.8-4.6c2.6-1.1,5.5-1.7,8.6-1.7c0.9,0,1.8,0.1,2.9,0.2   c1.1,0.1,2.1,0.3,3.1,0.5c1,0.2,2,0.5,2.9,0.8c0.9,0.3,1.7,0.7,2.3,1.1l1,0.7l0.6-1.1c0.6-1,1-1.8,1.3-2.4c0.3-0.6,0.6-1.1,0.9-1.6   c0.3-0.5,0.6-1,0.8-1.4c0.2-0.4,0.6-1,1-1.6l0.5-0.8l-0.7-0.6c-0.7-0.6-1.7-1.2-2.9-1.8c-1.2-0.6-2.6-1-4.1-1.5   c-1.5-0.4-3.2-0.7-4.9-1c-6.3-0.8-12.3-0.1-17.8,2.1c-4,1.6-7.5,3.9-10.4,6.8c-3,2.9-5.3,6.4-7,10.4c-1.7,4-2.6,8.4-2.6,13.1   c0,4.3,0.7,8.4,2.2,12.2c1.4,3.8,3.6,7.2,6.3,10.1c2.7,2.9,6.1,5.2,10,6.9c3.9,1.7,8.4,2.6,13.3,2.6c2.3,0,4.5-0.2,6.5-0.5   c2-0.3,3.9-0.8,5.6-1.3c1.7-0.5,3.2-1.1,4.4-1.7c1.3-0.6,2.3-1.2,3-1.7l0.7-0.5l-4.2-9.1L517,155z"/>
		<path class="st0" d="M583.6,133.7h-28.3v-25.9h-11.4v63.2h11.4v-26.3h28.3v26.3H595v-21.4c0-3.3,0-6.7,0-10.2c0-3.5,0-6.8,0-10.2   v-21.4h-11.5V133.7z"/>
		<polygon class="st0" points="635.3,144.6 662.7,144.6 662.7,133.9 635.3,133.9 635.3,118.3 666,118.3 666,107.8 623.8,107.8    623.8,170.9 667.2,170.9 667.2,160.2 635.3,160.2  "/>
		<path class="st0" d="M750.7,108.6c-1,1.5-2.3,3.2-3.7,5.2c-1.5,2-3,4.2-4.8,6.6c-1.7,2.4-3.4,4.8-5.2,7.3l-5.2,7.1   c-1.7,2.3-3.2,4.4-4.5,6.3c-1.3,1.8-2.4,3.4-3.3,4.6c-0.3,0.4-0.5,0.7-0.7,1c-0.5-0.7-1.3-1.7-2.1-3c-1.5-2.1-3.3-4.6-5.4-7.5   l-6.6-9.2c-2.4-3.3-4.6-6.4-6.7-9.3l-5.5-7.7c-1.6-2.2-2.6-3.7-3.1-4.4l-2-3.2v68.5H703v-33.8c1,1.4,2.1,3,3.4,4.8   c1.5,2.1,3,4.3,4.8,6.7c1.7,2.4,3.3,4.7,4.9,6.8c1.5,2.1,2.9,4,4,5.6c1.1,1.6,1.9,2.7,2.3,3.2l1,1.2l0.8-1.3   c0.4-0.6,1.1-1.6,2.2-3.2c1.1-1.5,2.3-3.3,3.7-5.3c1.4-2,2.9-4.2,4.5-6.4c1.6-2.3,3.1-4.4,4.5-6.5c1.4-2,2.7-3.9,3.8-5.5   c0-0.1,0.1-0.1,0.1-0.2v33.9h12V103l-2,2.5C752.5,106.1,751.7,107.1,750.7,108.6z"/>
		<rect x="783.7" y="107.8" class="st0" width="11.4" height="63.2"/>
		<path class="st0" d="M851.3,139.1c0.3-0.6,0.8-1.4,1.5-2.4l3.4-5.4c1.3-2.1,2.7-4.3,4.2-6.7c1.5-2.4,2.8-4.6,4.2-6.6   c1.3-2.1,2.5-3.9,3.4-5.4c0.9-1.5,1.6-2.5,1.9-3l1.1-1.7h-13.9l-0.3,0.5c-0.3,0.5-0.7,1.2-1.4,2.3c-0.6,1.1-1.4,2.3-2.2,3.7   c-0.8,1.4-1.7,2.8-2.6,4.4c-0.9,1.5-1.8,3-2.6,4.4c-0.8,1.4-1.5,2.6-2.2,3.6c-0.6,1.1-1.1,1.8-1.4,2.3l-0.1,0.1   c0,0.1-0.2,0.3-0.4,0.7c-0.2-0.4-0.3-0.6-0.4-0.7l-0.1-0.1c-0.3-0.4-0.7-1.2-1.4-2.3c-0.6-1.1-1.4-2.3-2.2-3.7   c-0.8-1.4-1.7-2.8-2.7-4.4c-1-1.5-1.8-3-2.7-4.4c-0.8-1.4-1.6-2.6-2.3-3.7c-0.7-1.1-1.1-1.8-1.4-2.3l-0.3-0.5h-13.9l19.8,30.9   L816,170.9H830l2.9-4.7c1.2-2,2.6-4.2,4-6.6c1.3-2.3,2.7-4.5,3.9-6.6l2.5-4.1c0.1-0.1,0.2-0.3,0.4-0.7c0,0.1,0.1,0.1,0.1,0.2   c0.2,0.5,0.5,0.9,0.7,1.2l13.3,21.3h14.1L851.3,139.1z"/>
	</g>
	<g>
		<circle class="st1" cx="220.4" cy="165.7" r="85.3"/>
		<line class="st1" x1="220.4" y1="190.4" x2="220.4" y2="251"/>
		<line class="st1" x1="220.4" y1="80.4" x2="220.4" y2="98.4"/>
		<g>
			<polyline class="st1" points="220.4,190.4 162.3,144.4 220.4,98.4 278.5,144.4 252.6,164.9   "/>
			<polyline class="st1" points="269.6,194.4 278.5,187.3 278.5,144.4   "/>
			<polyline class="st1" points="162.3,144.4 162.3,187.3 220.4,233.3 246.6,212.6   "/>
		</g>
		<g>
			<polyline class="st1" points="172.5,195.4 162.5,212.6 194.2,212.6   "/>
			<polyline class="st1" points="220.4,212.6 278.2,212.6 220.4,112.4 190.2,164.8   "/>
		</g>
	</g>
	<g>
		<path class="st2" d="M349,201.1c-1-0.6-2.2-1-3.4-1.4c-1.2-0.4-2.4-0.6-3.5-0.6c-1.6,0-2.8,0.4-3.7,1.1c-0.9,0.7-1.4,1.7-1.4,2.9   c0,0.9,0.3,1.6,0.9,2.2c0.6,0.6,1.4,1.2,2.4,1.7c1,0.5,2,0.9,3.1,1.3c1.2,0.4,2.4,1,3.6,1.7c1.2,0.7,2.1,1.6,2.9,2.7   c0.7,1.1,1.1,2.6,1.1,4.5c0,1.6-0.4,3-1.2,4.3c-0.8,1.3-1.9,2.3-3.4,3.1c-1.5,0.8-3.2,1.1-5.3,1.1c-1.9,0-3.8-0.3-5.5-0.9   c-1.7-0.6-3.2-1.4-4.4-2.2l1.9-3.4c1,0.7,2.1,1.4,3.6,1.9c1.4,0.6,2.7,0.8,4,0.8c0.9,0,1.8-0.2,2.7-0.5c0.9-0.3,1.6-0.8,2.2-1.5   c0.6-0.7,0.9-1.6,0.9-2.7c0-0.9-0.3-1.7-0.8-2.4c-0.5-0.7-1.2-1.2-2-1.7c-0.8-0.5-1.7-0.9-2.7-1.2c-0.9-0.4-1.9-0.8-2.9-1.2   c-1-0.4-1.9-1-2.7-1.6c-0.8-0.6-1.5-1.4-2-2.3c-0.5-0.9-0.8-2-0.8-3.4c0-1.6,0.4-3,1.1-4.2c0.8-1.2,1.8-2.1,3.2-2.8   c1.3-0.7,2.9-1.1,4.6-1.1c2,0,3.7,0.2,5.2,0.7c1.5,0.5,2.8,1.1,3.9,1.8L349,201.1z"/>
		<path class="st2" d="M365.8,195.4h19.6v4.2h-15.3v8.6h13.7v4.2h-13.7v8.8H386v4.2h-20.2V195.4z"/>
		<path class="st2" d="M401.1,195.4h4.3v25.8h15v4.2h-19.3V195.4z"/>
		<path class="st2" d="M435.2,195.4h17.9v4.2h-13.6v9.1h11.9v4.1h-11.9v12.6h-4.3V195.4z"/>
		<path class="st2" d="M465.9,214.6h7.7v3.6h-7.7V214.6z"/>
		<path class="st2" d="M496.9,195.4c2.1,0,4,0.4,5.6,1.1c1.6,0.7,2.9,1.8,3.8,3.2c0.9,1.4,1.4,3.1,1.4,5.1c0,1.2-0.2,2.4-0.5,3.5   c-0.4,1.2-0.9,2.2-1.7,3.1c-0.8,0.9-1.8,1.7-3.1,2.3c-1.3,0.6-2.9,0.8-4.8,0.8H493v10.8h-4.3v-30H496.9z M497.4,210.4   c1.5,0,2.7-0.3,3.6-0.9c0.8-0.6,1.4-1.3,1.8-2.1c0.3-0.8,0.5-1.6,0.5-2.4c0-0.6-0.1-1.1-0.3-1.8c-0.2-0.6-0.5-1.2-0.9-1.8   c-0.4-0.6-1-1-1.7-1.4c-0.7-0.3-1.6-0.5-2.6-0.5H493v10.8H497.4z M502.4,213l7.8,12.4h-5l-7.9-12.3L502.4,213z"/>
		<path class="st2" d="M524.4,195.4h19.6v4.2h-15.3v8.6h13.7v4.2h-13.7v8.8h15.9v4.2h-20.2V195.4z"/>
		<path class="st2" d="M568,195.4c3.3,0,5.9,0.8,7.8,2.5c1.9,1.7,2.8,4,2.8,6.9c0,1.2-0.2,2.4-0.5,3.5c-0.4,1.2-0.9,2.2-1.7,3.2   c-0.8,1-1.8,1.7-3.1,2.3c-1.3,0.6-2.8,0.8-4.7,0.8h-4.4v10.7h-4.3v-30H568z M568.4,210.4c1.1,0,2.1-0.2,2.8-0.6   c0.8-0.4,1.3-0.8,1.8-1.4c0.4-0.6,0.7-1.2,0.9-1.8c0.2-0.6,0.3-1.2,0.3-1.7c0-0.6-0.1-1.1-0.3-1.8c-0.2-0.6-0.5-1.2-0.9-1.7   c-0.4-0.5-1-1-1.7-1.3c-0.7-0.3-1.6-0.5-2.7-0.5h-4.6v10.8H568.4z"/>
		<path class="st2" d="M586.9,225.4l13.2-31.2h0.2l13.2,31.2h-5l-9.6-24.4l3.1-2l-10.8,26.5H586.9z M594.9,214.2h10.7l1.5,3.7h-13.5   L594.9,214.2z"/>
		<path class="st2" d="M631.3,215.5l-11.1-20.1h5.3l8.7,16.4l-1.4,0.1l8.6-16.4h5.3l-11.2,20.1v9.9h-4.3V215.5z"/>
		<path class="st2" d="M660.4,195.4h4.3v30h-4.3V195.4z"/>
		<path class="st2" d="M707.6,226.4l-23.1-23.1l1.3,0.4l0.1,21.6h-4.3v-30.9h0.2l22.8,23.1l-1-0.2l-0.1-21.9h4.3v31H707.6z"/>
		<path class="st2" d="M748.1,222.8c-0.4,0.4-1,0.7-1.7,1.1c-0.7,0.4-1.6,0.7-2.5,1c-0.9,0.3-1.9,0.5-2.8,0.7c-1,0.2-1.9,0.2-2.7,0.2   c-3.2,0-6-0.6-8.3-1.9s-4.2-3-5.4-5.2c-1.3-2.2-1.9-4.7-1.9-7.5c0-2.6,0.4-4.8,1.2-6.8c0.8-2,1.9-3.7,3.4-5   c1.4-1.3,3.1-2.4,4.9-3.1c1.8-0.7,3.8-1.1,5.8-1.1c1.8,0,3.4,0.2,5,0.6s2.8,0.9,4,1.6l-1.4,4c-0.6-0.3-1.2-0.6-2-0.9   c-0.8-0.3-1.7-0.5-2.5-0.7c-0.9-0.2-1.7-0.2-2.4-0.2c-2.3,0-4.3,0.5-6,1.4s-3,2.2-4,3.9s-1.4,3.7-1.4,6c0,2.1,0.5,4,1.4,5.6   c1,1.6,2.3,2.9,4,3.8c1.7,0.9,3.7,1.4,5.9,1.4c1,0,2-0.1,2.9-0.3c1-0.2,1.8-0.5,2.4-0.9v-5.5h-5.8v-4.2h10.2V222.8z"/>
		<path class="st2" d="M777.5,195.4h19.6v4.2h-15.3v8.6h13.7v4.2h-13.7v8.8h15.9v4.2h-20.2V195.4z"/>
		<path class="st2" d="M838.9,226.4l-23.1-23.1l1.3,0.4l0.1,21.6h-4.3v-30.9h0.2l22.8,23.1l-1-0.2l-0.1-21.9h4.3v31H838.9z"/>
		<path class="st2" d="M871.4,201.1c-1-0.6-2.2-1-3.4-1.4c-1.2-0.4-2.4-0.6-3.5-0.6c-1.6,0-2.8,0.4-3.7,1.1c-0.9,0.7-1.4,1.7-1.4,2.9   c0,0.9,0.3,1.6,0.9,2.2c0.6,0.6,1.4,1.2,2.4,1.7c1,0.5,2,0.9,3.1,1.3c1.2,0.4,2.4,1,3.6,1.7c1.2,0.7,2.1,1.6,2.9,2.7   c0.7,1.1,1.1,2.6,1.1,4.5c0,1.6-0.4,3-1.2,4.3s-1.9,2.3-3.4,3.1c-1.5,0.8-3.2,1.1-5.3,1.1c-1.9,0-3.8-0.3-5.5-0.9   c-1.7-0.6-3.2-1.4-4.4-2.2l1.9-3.4c1,0.7,2.1,1.4,3.6,1.9c1.4,0.6,2.7,0.8,4,0.8c0.9,0,1.8-0.2,2.7-0.5c0.9-0.3,1.6-0.8,2.2-1.5   c0.6-0.7,0.9-1.6,0.9-2.7c0-0.9-0.3-1.7-0.8-2.4s-1.2-1.2-2-1.7c-0.8-0.5-1.7-0.9-2.7-1.2c-0.9-0.4-1.9-0.8-2.9-1.2   c-1-0.4-1.9-1-2.7-1.6c-0.8-0.6-1.5-1.4-2-2.3c-0.5-0.9-0.8-2-0.8-3.4c0-1.6,0.4-3,1.1-4.2c0.8-1.2,1.8-2.1,3.2-2.8   c1.3-0.7,2.9-1.1,4.6-1.1c2,0,3.7,0.2,5.2,0.7c1.5,0.5,2.8,1.1,3.9,1.8L871.4,201.1z"/>
	</g>
</svg>