<?xml version="1.0" standalone="no"?>
<!DOCTYPE svg PUBLIC "-//W3C//DTD SVG 20010904//EN"
 "http://www.w3.org/TR/2001/REC-SVG-20010904/DTD/svg10.dtd">
<svg version="1.0" xmlns="http://www.w3.org/2000/svg"
 width="310.000000pt" height="310.000000pt" viewBox="0 0 310.000000 310.000000"
 preserveAspectRatio="xMidYMid meet">
<metadata>
Created by potrace 1.14, written by Peter Selinger 2001-2017
</metadata>
<g transform="translate(0.000000,310.000000) scale(0.100000,-0.100000)"
fill="#000000" stroke="none">
<path d="M1365 2929 c-182 -23 -409 -103 -561 -199 -458 -286 -706 -821 -629
-1355 85 -594 536 -1058 1129 -1160 49 -8 106 -15 127 -15 l39 0 0 100 0 99
-42 35 c-24 19 -114 92 -201 161 l-158 125 -268 0 c-352 0 -350 -1 -231 200
38 65 70 123 70 128 0 5 -31 35 -69 66 -38 31 -72 64 -75 72 -8 21 -8 738 0
758 3 9 81 76 173 148 376 299 643 510 748 592 l53 41 -3 105 c-2 119 5 112
-102 99z"/>
<path d="M1590 2833 c1 -106 1 -108 28 -128 15 -10 113 -87 217 -170 105 -83
241 -191 304 -240 62 -50 184 -146 270 -215 l156 -125 3 -387 2 -387 -52 -45
c-29 -24 -64 -53 -77 -64 l-25 -19 72 -126 c75 -131 84 -163 54 -190 -16 -15
-51 -17 -282 -17 l-263 0 -36 -27 c-20 -15 -111 -87 -203 -161 l-168 -133 0
-100 0 -99 38 0 c65 0 222 30 322 62 212 68 387 175 550 338 195 195 315 417
377 695 22 101 25 429 5 515 -36 149 -48 192 -83 278 -120 297 -352 550 -638
696 -149 75 -301 124 -441 140 -30 4 -72 9 -92 12 l-38 6 0 -109z"/>
<path d="M1110 2289 c-228 -181 -423 -338 -434 -348 -18 -19 -15 -22 144 -147
89 -71 165 -130 170 -132 6 -2 74 107 152 246 66 119 296 515 325 560 30 48
37 53 66 50 40 -4 32 8 312 -477 121 -210 223 -380 227 -379 23 8 327 255 325
264 -1 6 -78 72 -172 146 -93 73 -249 196 -345 272 -321 255 -348 276 -351
275 -2 0 -191 -149 -419 -330z"/>
<path d="M1428 2162 c-53 -92 -126 -219 -163 -282 -119 -204 -165 -288 -165
-298 0 -6 39 -41 86 -79 48 -37 157 -124 243 -193 l156 -125 3 -173 2 -172
400 0 c220 0 400 3 400 6 0 7 -61 116 -165 294 -62 107 -217 375 -548 950 -74
129 -139 236 -144 237 -4 2 -51 -72 -105 -165z"/>
<path d="M621 1508 l0 -283 261 -205 c144 -113 329 -258 412 -324 83 -65 157
-123 164 -128 9 -8 12 48 12 274 l0 284 -51 39 c-29 22 -154 120 -279 220
-444 352 -505 400 -512 403 -4 2 -8 -124 -7 -280z"/>
<path d="M2282 1669 c-84 -66 -150 -124 -148 -127 2 -4 48 -83 101 -177 54
-93 103 -178 108 -187 10 -15 13 -15 36 2 76 54 71 30 71 335 0 151 -3 275 -8
275 -4 0 -76 -54 -160 -121z"/>
<path d="M733 958 c-21 -29 -64 -110 -60 -114 2 -3 57 -3 121 -2 l116 3 -79
63 c-44 34 -81 62 -84 62 -2 0 -9 -6 -14 -12z"/>
<path d="M1590 639 c0 -92 -8 -92 100 -6 118 95 118 87 2 87 l-102 0 0 -81z"/>
</g>
</svg>
